<svg width="800" height="289" viewBox="0 0 800 289" fill="none" xmlns="http://www.w3.org/2000/svg">
<g clip-path="url(#clip0_5_783)">
<path d="M114.39 10.25V123.84C114.436 124.149 114.408 124.464 114.31 124.76C114.212 125.056 114.047 125.325 113.826 125.546C113.605 125.766 113.336 125.932 113.04 126.03C112.744 126.128 112.429 126.155 112.12 126.11H97.4904C97.1943 126.129 96.8977 126.082 96.6221 125.972C96.3464 125.863 96.0986 125.693 95.8966 125.476C95.6946 125.259 95.5435 124.999 95.4542 124.716C95.3649 124.433 95.3397 124.134 95.3804 123.84V59.49C95.3804 50.39 96.0304 36.25 96.6804 27.32H96.0004L70.0004 123.19C69.5204 125.19 68.5404 126.11 66.4304 126.11H52.4304C50.3104 126.11 49.3404 124.97 48.8504 123.19L22.5904 27.32H22.1004C22.7504 36.09 23.5604 50.39 23.5604 59.49V123.84C23.5955 124.147 23.561 124.457 23.4593 124.749C23.3576 125.04 23.1915 125.305 22.9733 125.523C22.7551 125.741 22.4904 125.907 22.199 126.009C21.9076 126.111 21.597 126.145 21.2904 126.11H6.82039C6.52842 126.114 6.23888 126.057 5.97043 125.942C5.70198 125.827 5.46058 125.657 5.26179 125.443C5.06299 125.229 4.91122 124.976 4.81625 124.7C4.72127 124.424 4.68521 124.131 4.71039 123.84V10.25C4.65609 9.83182 4.69871 9.40671 4.83496 9.00759C4.9712 8.60847 5.19742 8.24603 5.49611 7.9483C5.7948 7.65058 6.15797 7.42554 6.55753 7.29059C6.95709 7.15564 7.38234 7.11439 7.80039 7.17004H31.5204C32.3999 7.08098 33.2799 7.33497 33.9768 7.87901C34.6736 8.42306 35.1334 9.21515 35.2604 10.09L51.3504 68.59C54.9204 82.24 57.5204 91.66 59.6304 103.52H60.1204C62.2304 91.66 64.5104 82.08 68.2504 68.43L84.3304 10.25C84.8204 8.14004 85.9604 7.17004 87.9104 7.17004H111.31C111.725 7.12783 112.144 7.17849 112.537 7.31835C112.93 7.45821 113.287 7.68376 113.582 7.97864C113.877 8.27352 114.102 8.63034 114.242 9.02321C114.382 9.41609 114.433 9.83516 114.39 10.25Z" fill="#1E5E82"/>
<path d="M201.14 64.1999V123.84C201.173 124.147 201.137 124.458 201.035 124.749C200.932 125.04 200.764 125.305 200.546 125.523C200.327 125.741 200.061 125.907 199.77 126.008C199.478 126.11 199.167 126.145 198.86 126.11H184.56C184.253 126.145 183.943 126.11 183.651 126.009C183.36 125.907 183.095 125.741 182.877 125.523C182.659 125.305 182.493 125.04 182.391 124.748C182.289 124.457 182.255 124.146 182.29 123.84V113.27C176.76 122.21 167.66 127.9 156.61 127.9C139.71 127.9 128.99 116.85 128.99 100.76C128.99 84.5099 139.71 75.0899 163.11 73.4599C169.22 73.008 175.353 72.9546 181.47 73.2999V64.9999C181.47 54.9299 175.95 50.8699 166.69 50.8699C157.43 50.8699 154 54.2899 151.74 60.6299C151.09 62.4099 150.44 62.7399 148.65 62.2499L134.51 58.6799C133.05 58.1899 132.56 57.3799 133.05 56.0799C135.65 43.3999 147.19 34.6299 167.5 34.6299C188.46 34.6299 201.14 44.5399 201.14 64.1999ZM181.47 97.1999V86.1999C175.892 85.985 170.306 86.0919 164.74 86.5199C154.18 87.6599 148.16 91.2399 148.16 99.6799C148.16 107 153.16 111.68 161.81 111.68C170.91 111.65 177.9 106.29 181.47 97.1899V97.1999Z" fill="#1E5E82"/>
<path d="M237.81 68.5899V123.84C237.846 124.146 237.811 124.457 237.709 124.748C237.608 125.04 237.442 125.305 237.223 125.523C237.005 125.741 236.74 125.907 236.449 126.009C236.158 126.11 235.847 126.145 235.54 126.11H220.101C218.481 126.11 217.66 125.3 217.66 123.84V38.5299C217.641 38.2329 217.688 37.9352 217.799 37.6588C217.909 37.3823 218.079 37.1339 218.298 36.9317C218.516 36.7295 218.777 36.5787 219.061 36.4901C219.345 36.4016 219.646 36.3776 219.94 36.4199H235.05C235.344 36.3792 235.644 36.4044 235.927 36.4937C236.209 36.583 236.469 36.7341 236.686 36.9361C236.904 37.1381 237.073 37.3859 237.183 37.6616C237.293 37.9372 237.34 38.2338 237.321 38.5299V49.4099C242.851 41.4099 251.951 34.6299 264.321 34.6299C281.381 34.6299 290.641 46.9799 290.641 65.1799V123.84C290.686 124.148 290.659 124.463 290.561 124.76C290.463 125.056 290.297 125.325 290.076 125.545C289.855 125.766 289.586 125.932 289.29 126.03C288.994 126.128 288.679 126.155 288.37 126.11H272.91C271.28 126.11 270.47 125.3 270.47 123.84V68.5899C270.47 58.8399 265.921 52.9899 256.821 52.9899C248.211 52.9999 241.06 59.3299 237.81 68.5899Z" fill="#1E5E82"/>
<path d="M334.54 16.59V37.07H352.42C353.72 37.07 354.53 37.88 354.53 39.5V51.2C354.53 52.83 353.72 53.48 352.42 53.48H334.54V98.65C334.54 105.15 338.12 108.4 345.43 108.4H352.26C352.569 108.355 352.884 108.382 353.18 108.48C353.476 108.578 353.745 108.744 353.966 108.964C354.186 109.185 354.352 109.454 354.45 109.75C354.548 110.046 354.576 110.361 354.53 110.67V123.84C354.576 124.149 354.548 124.464 354.45 124.76C354.352 125.056 354.186 125.325 353.966 125.546C353.745 125.766 353.476 125.932 353.18 126.03C352.884 126.128 352.569 126.155 352.26 126.11H342.18C323.98 126.11 314.88 116.36 314.88 101.41V53.48H303.67C303.36 53.5276 303.043 53.5015 302.744 53.4037C302.446 53.306 302.175 53.1393 301.953 52.9173C301.731 52.6954 301.564 52.4242 301.467 52.1259C301.369 51.8275 301.343 51.5104 301.39 51.2V39.5C301.39 37.88 302.21 37.07 303.67 37.07H315V16.59C314.979 16.2857 315.024 15.9804 315.132 15.6949C315.239 15.4093 315.406 15.1502 315.622 14.9349C315.839 14.7197 316.099 14.5534 316.385 14.4473C316.671 14.3413 316.976 14.2978 317.28 14.32H332.23C332.542 14.2675 332.861 14.2896 333.163 14.3845C333.464 14.4793 333.739 14.6442 333.964 14.8657C334.19 15.0872 334.359 15.3589 334.46 15.6587C334.56 15.9584 334.587 16.2776 334.54 16.59Z" fill="#1E5E82"/>
<path d="M383.53 87.4399V92.6399C383.53 104.17 389.53 111.32 402.38 111.49C414.38 111.49 418.14 106.77 421.23 100.76C422.53 98.6499 423.35 98.3299 425.46 99.2999L435.7 104.5C437.97 105.64 438.13 106.94 437.16 108.89C431.79 120.75 419.28 127.89 402.22 127.89C377.36 127.89 364.22 113.1 364.22 92.2999V70.2099C364.22 49.8999 376.89 34.6299 401.92 34.6299C425.92 34.6299 438.15 49.8999 438.15 69.8899V83.5399C438.15 86.1399 437.15 87.4399 434.09 87.4399H383.53ZM383.53 69.4399V74.1499H419.61V69.3999C419.61 58.3499 413.43 51.0399 401.61 51.0399C389.79 51.0399 383.53 58.3499 383.53 69.3999V69.4399Z" fill="#1E5E82"/>
<path d="M472.43 4.40002V123.84C472.465 124.147 472.431 124.457 472.329 124.749C472.228 125.04 472.061 125.305 471.843 125.523C471.625 125.741 471.36 125.907 471.069 126.009C470.777 126.111 470.467 126.145 470.16 126.11H454.72C453.1 126.11 452.28 125.3 452.28 123.84V4.40002C452.28 2.94002 453.1 2.13002 454.72 2.13002H470.16C470.467 2.0949 470.777 2.12945 471.069 2.23111C471.36 2.33277 471.625 2.49891 471.843 2.71713C472.061 2.93536 472.228 3.20004 472.329 3.49143C472.431 3.78282 472.465 4.09341 472.43 4.40002Z" fill="#1E5E82"/>
<path d="M70.52 171.79H52.52C58.69 175.86 63.89 183.98 63.89 196.33C63.89 214.53 52.68 225.74 33.5 225.74H23.24C15.92 225.74 12.67 229.48 12.67 233.54C12.67 237.6 15.92 241.18 23.24 241.18H43.71C64.51 241.18 72 251.9 72 263.6C72 277.25 61.6 288.46 35.61 288.46C10.24 288.46 0 277.9 0 264.25C0 255.8 3.9 248 12.51 244.1C10.7723 242.887 9.33952 241.288 8.32444 239.428C7.30936 237.568 6.73962 235.498 6.66 233.38C6.66 228.38 10.4 223.47 16.09 221.68C7.48 216.8 2.76 207.68 2.76 195.68C2.76 176.99 14.14 165.78 33.31 165.78H70.52C71.52 165.78 71.98 166.11 71.98 167.57V170C72 171.47 71.5 171.79 70.52 171.79ZM27.14 247.19C10.72 247.19 6.14 255.19 6.14 263.6C6.14 275.3 15.08 282.45 35.39 282.45C56.39 282.45 65.78 274.81 65.78 263.11C65.78 254.99 61.23 247.19 43.68 247.19H27.14ZM33.31 171.79C18.04 171.79 8.94 180.08 8.94 195.52C8.94 210.79 17.71 219.73 33.8 219.73C48.26 219.73 57.69 212.58 57.69 196.33C57.69 181.38 49.72 171.79 33.31 171.79Z" fill="#1E5E82"/>
<path d="M124.78 166.11V169.52C124.78 170.52 124.45 170.98 123.15 170.98H121.85C108.69 170.98 99.7497 179.76 94.8497 190.64V253C94.8497 254.3 94.0397 254.3 93.0597 254.3H90.4597C89.4597 254.3 88.6797 254.3 88.6797 253V167C88.6797 165.7 89.4897 165.7 90.2997 165.7H93.2297C94.0397 165.7 94.8497 165.7 94.8497 167L94.6897 181.79C97.3854 176.545 101.489 172.154 106.541 169.11C111.593 166.067 117.392 164.491 123.29 164.56C124.29 164.64 124.78 165 124.78 166.11Z" fill="#1E5E82"/>
<path d="M200.71 196.82V223.3C200.71 243.3 188.85 255.97 167.71 255.97C146.57 255.97 134.71 243.29 134.71 223.3V196.82C134.71 176.82 146.57 164.16 167.71 164.16C188.85 164.16 200.71 176.83 200.71 196.82ZM140.91 197.14V223C140.91 241.2 151.31 250 167.73 250C184.15 250 194.54 241.23 194.54 223V197.14C194.54 178.94 184.14 170.14 167.73 170.14C151.32 170.14 140.91 178.94 140.91 197.14Z" fill="#1E5E82"/>
<path d="M220.42 228.5V167.24C220.42 166.24 220.75 165.78 222.21 165.78H224.81C226.27 165.78 226.6 166.27 226.6 167.24V227.37C226.6 241.83 232.93 249.95 247.07 249.95C258.61 249.95 269.66 241.95 275.02 230.13V167.24C275.02 166.24 275.34 165.78 276.81 165.78H279.41C280.87 165.78 281.19 166.27 281.19 167.24V252.88C281.19 253.88 280.87 254.34 279.41 254.34H276.81C275.34 254.34 275.02 253.85 275.02 252.88V239.88C269 249 259.09 256 246.26 256C229.19 256 220.42 244.43 220.42 228.5Z" fill="#1E5E82"/>
<path d="M304.67 286.84C304.495 286.857 304.318 286.835 304.153 286.776C303.987 286.717 303.837 286.621 303.713 286.497C303.589 286.373 303.493 286.222 303.434 286.057C303.375 285.891 303.353 285.715 303.37 285.54V167.08C303.37 165.78 304.02 165.78 305 165.78H307.92C308.57 165.78 309.55 165.78 309.55 167.08V178.94C313.77 171.14 323.03 164.16 336.85 164.16C356.18 164.32 368.05 176.83 368.05 196.82V223.3C368.05 243.3 356.18 255.8 336.85 255.97C323.03 255.97 313.77 248.97 309.55 241.02V285.54C309.55 286.54 309.06 286.84 308.08 286.84H304.67ZM361.87 223V197.14C361.87 178.94 351.63 170.33 336.52 170.14C322.87 170.14 309.52 179.24 309.52 197.28V222.79C309.52 240.79 322.84 249.92 336.52 249.92C351.63 249.79 361.87 241.18 361.87 223Z" fill="#1E5E82"/>
<path d="M792.92 212.22L694.86 49.7001C692.017 44.9811 688.003 41.0763 683.207 38.3637C678.412 35.6511 672.997 34.2226 667.487 34.2166C661.978 34.2105 656.56 35.6271 651.758 38.3292C646.957 41.0313 642.934 44.9273 640.08 49.6401L578 149.3C565.07 128.46 556.13 113.3 556 113.11C553.833 109.518 550.775 106.547 547.122 104.484C543.469 102.422 539.345 101.338 535.15 101.338C530.955 101.338 526.831 102.422 523.178 104.484C519.525 106.547 516.467 109.518 514.3 113.11L443.3 230.79C439.967 236.313 438.161 242.623 438.067 249.073C437.974 255.523 439.596 261.883 442.769 267.5C445.941 273.117 450.549 277.79 456.121 281.041C461.693 284.292 468.029 286.003 474.48 286H751.27C759.889 286.001 768.352 283.712 775.795 279.367C783.238 275.023 789.393 268.778 793.63 261.274C797.868 253.769 800.035 245.273 799.91 236.656C799.785 228.038 797.373 219.609 792.92 212.23V212.22Z" fill="#1E5E82"/>
<path d="M450.23 263.28C447.772 258.996 446.512 254.129 446.583 249.19C446.653 244.252 448.051 239.423 450.63 235.21L521.63 117.53C523.041 115.215 525.024 113.301 527.388 111.974C529.752 110.646 532.418 109.948 535.13 109.948C537.841 109.948 540.507 110.646 542.871 111.974C545.235 113.301 547.218 115.215 548.63 117.53C548.73 117.71 558.73 134.67 572.91 157.41L565.71 168.8C502.22 269.27 497.03 277.48 474.44 277.48C469.501 277.503 464.648 276.197 460.388 273.698C456.129 271.2 452.62 267.601 450.23 263.28Z" fill="#81CCEA"/>
<path d="M786.18 257.06C782.724 263.276 777.659 268.447 771.517 272.033C765.375 275.618 758.382 277.486 751.27 277.44H500.54L500.89 277.14L501.27 276.82C501.89 276.29 502.51 275.73 503.13 275.15L503.5 274.8C504.14 274.19 504.78 273.56 505.44 272.88L505.78 272.53C506.45 271.83 507.13 271.11 507.78 270.33C507.879 270.231 507.972 270.128 508.06 270.02C508.76 269.24 509.47 268.42 510.2 267.56L510.3 267.44C523.02 252.32 540.75 224.26 572.94 173.33L581.57 159.67L647.37 54.1199C649.457 50.6603 652.402 47.7986 655.92 45.8121C659.438 43.8256 663.41 42.7817 667.45 42.7817C671.49 42.7817 675.462 43.8256 678.98 45.8121C682.498 47.7986 685.443 50.6603 687.53 54.1199L785.59 216.64C789.305 222.705 791.319 229.658 791.423 236.769C791.527 243.881 789.716 250.889 786.18 257.06Z" fill="#D86E89"/>
</g>
<defs>
<clipPath id="clip0_5_783">
<rect width="800" height="288.46" fill="white"/>
</clipPath>
</defs>
</svg>
